<svg width="225" height="162" viewBox="0 0 225 162" fill="none" xmlns="http://www.w3.org/2000/svg">
<path d="M220 27.8V134.2C220 140.247 217.386 146.046 212.734 150.322C208.082 154.598 201.772 157 195.192 157H29.8077C23.2283 157 16.9183 154.598 12.266 150.322C7.61366 146.046 5 140.247 5 134.2V27.8M220 27.8C220 21.7531 217.386 15.9538 212.734 11.678C208.082 7.40214 201.772 5 195.192 5H29.8077C23.2283 5 16.9183 7.40214 12.266 11.678C7.61366 15.9538 5 21.7531 5 27.8M220 27.8V30.2624C220 34.1551 218.917 37.983 216.851 41.3817C214.786 44.7803 211.809 47.6364 208.203 49.6779L125.51 96.4432C121.598 98.6577 117.094 99.8303 112.5 99.8303C107.906 99.8303 103.402 98.6577 99.4897 96.4432L16.7974 49.688C13.1912 47.6465 10.2137 44.7904 8.14858 41.3918C6.08347 37.9932 4.99953 34.1652 5 30.2725V27.8" stroke="white" stroke-width="10" stroke-linecap="round" stroke-linejoin="round"/>
</svg>
