<svg width="219" height="330" viewBox="0 0 219 330" fill="none" xmlns="http://www.w3.org/2000/svg">
<path d="M83.375 5H44.1875C33.7943 5 23.8268 8.61223 16.4778 15.0421C9.12867 21.4719 5 30.1926 5 39.2857V290.714C5 299.807 9.12867 308.528 16.4778 314.958C23.8268 321.388 33.7943 325 44.1875 325H174.813C185.206 325 195.173 321.388 202.522 314.958C209.871 308.528 214 299.807 214 290.714V39.2857C214 30.1926 209.871 21.4719 202.522 15.0421C195.173 8.61223 185.206 5 174.813 5H135.625M83.375 5V27.8571H135.625V5M83.375 5H135.625M83.375 290.714H135.625" stroke="white" stroke-width="10" stroke-linecap="round" stroke-linejoin="round"/>
</svg>
