<svg width="125" height="125" viewBox="0 0 125 125" fill="none" xmlns="http://www.w3.org/2000/svg">
<path d="M124.597 36.8943C124.527 31.6459 123.543 26.4496 121.689 21.5379C120.081 17.3949 117.625 13.6323 114.478 10.4906C111.331 7.34881 107.562 4.89696 103.412 3.29166C98.5558 1.4716 93.425 0.487452 88.2386 0.38114C81.561 0.0831582 79.4439 0 62.4931 0C45.5423 0 43.3696 4.6468e-07 36.7406 0.38114C31.5565 0.488234 26.4282 1.47236 21.5737 3.29166C17.4232 4.89584 13.6538 7.3473 10.5067 10.4892C7.35954 13.6311 4.904 17.3942 3.29715 21.5379C1.4704 26.3827 0.48675 31.5037 0.388716 36.6795C0.0902376 43.3529 0 45.4665 0 62.3891C0 79.3117 -5.17172e-08 81.4738 0.388716 88.0987C0.492836 93.2822 1.47157 98.3965 3.29715 103.254C4.90669 107.397 7.36406 111.158 10.5122 114.299C13.6604 117.439 17.4302 119.89 21.5807 121.494C26.4218 123.387 31.5511 124.441 36.7476 124.612C43.4321 124.91 45.5492 125 62.5 125C79.4508 125 81.6235 125 88.2524 124.612C93.4387 124.51 98.5698 123.528 103.426 121.708C107.575 120.101 111.343 117.649 114.49 114.507C117.636 111.366 120.093 107.604 121.703 103.462C123.528 98.6113 124.507 93.4971 124.611 88.3066C124.91 81.6402 125 79.5266 125 62.597C124.986 45.6744 124.986 43.5262 124.597 36.8943ZM62.4514 94.391C44.7232 94.391 30.3615 80.0532 30.3615 62.3545C30.3615 44.6557 44.7232 30.3179 62.4514 30.3179C70.9622 30.3179 79.1244 33.6932 85.1424 39.7012C91.1604 45.7092 94.5413 53.8579 94.5413 62.3545C94.5413 70.8511 91.1604 78.9997 85.1424 85.0077C79.1244 91.0157 70.9622 94.391 62.4514 94.391ZM95.8185 36.6033C94.8356 36.6042 93.8622 36.4116 92.9539 36.0365C92.0456 35.6614 91.2204 35.1112 90.5254 34.4173C89.8303 33.7234 89.2792 32.8996 88.9035 31.9928C88.5278 31.086 88.3348 30.1142 88.3357 29.1329C88.3357 28.1524 88.5292 27.1814 88.9051 26.2755C89.2809 25.3696 89.8319 24.5464 90.5264 23.8531C91.2209 23.1597 92.0454 22.6097 92.9528 22.2345C93.8603 21.8592 94.8329 21.6661 95.8151 21.6661C96.7973 21.6661 97.7698 21.8592 98.6773 22.2345C99.5847 22.6097 100.409 23.1597 101.104 23.8531C101.798 24.5464 102.349 25.3696 102.725 26.2755C103.101 27.1814 103.294 28.1524 103.294 29.1329C103.294 33.2631 99.9486 36.6033 95.8185 36.6033Z" fill="white"/>
<path d="M62.5 83C73.8218 83 83 73.8218 83 62.5C83 51.1782 73.8218 42 62.5 42C51.1782 42 42 51.1782 42 62.5C42 73.8218 51.1782 83 62.5 83Z" fill="white"/>
</svg>
