<svg width="129" height="125" viewBox="0 0 129 125" fill="none" xmlns="http://www.w3.org/2000/svg">
<path d="M25.2792 0C11.3776 0 0 11.0246 0 24.4953V100.509C0 113.979 11.3774 125 25.2792 125H103.725C117.627 125 129 113.979 129 100.509V24.4953C129 11.0248 117.627 0 103.725 0H25.2792ZM31.6373 20.6275C38.3028 20.6275 42.4085 24.8676 42.5352 30.4412C42.5352 35.8917 38.3025 40.251 31.5083 40.251H31.3833C24.8446 40.251 20.6184 35.8919 20.6184 30.4412C20.6184 24.8677 24.9727 20.6275 31.6373 20.6275ZM89.0777 46.6777C101.897 46.6777 111.506 54.7964 111.506 72.2433V104.814H92.025V74.427C92.025 66.7912 89.2055 61.5817 82.1552 61.5817C76.7731 61.5817 73.565 65.093 72.1565 68.4849C71.6419 69.6985 71.5154 71.3933 71.5154 73.0909V104.814H52.034C52.034 104.814 52.2897 53.3396 52.034 48.0097H71.5194V56.0538C74.1083 52.1833 78.7391 46.6777 89.0777 46.6777ZM21.7676 48.0139H41.249V104.814H21.7676V48.0139Z" fill="white"/>
</svg>
