<svg width="217" height="154" viewBox="0 0 217 154" fill="none" xmlns="http://www.w3.org/2000/svg">
<path d="M216 23.8V130.2C216 136.247 213.386 142.046 208.734 146.322C204.082 150.598 197.772 153 191.192 153H25.8077C19.2283 153 12.9183 150.598 8.266 146.322C3.61366 142.046 1 136.247 1 130.2V23.8M216 23.8C216 17.7531 213.386 11.9538 208.734 7.67797C204.082 3.40214 197.772 1 191.192 1H25.8077C19.2283 1 12.9183 3.40214 8.266 7.67797C3.61366 11.9538 1 17.7531 1 23.8M216 23.8V26.2624C216 30.1551 214.917 33.983 212.851 37.3817C210.786 40.7803 207.809 43.6364 204.203 45.6779L121.51 92.4432C117.598 94.6577 113.094 95.8303 108.5 95.8303C103.906 95.8303 99.4016 94.6577 95.4897 92.4432L12.7974 45.688C9.19118 43.6465 6.21369 40.7904 4.14858 37.3918C2.08347 33.9932 0.999531 30.1652 1 26.2725V23.8" stroke="white" stroke-width="1.5" stroke-linecap="round" stroke-linejoin="round"/>
</svg>
