<svg width="211" height="322" viewBox="0 0 211 322" fill="none" xmlns="http://www.w3.org/2000/svg">
<path d="M79.375 1H40.1875C29.7943 1 19.8268 4.61223 12.4778 11.0421C5.12867 17.4719 1 26.1926 1 35.2857V286.714C1 295.807 5.12867 304.528 12.4778 310.958C19.8268 317.388 29.7943 321 40.1875 321H170.813C181.206 321 191.173 317.388 198.522 310.958C205.871 304.528 210 295.807 210 286.714V35.2857C210 26.1926 205.871 17.4719 198.522 11.0421C191.173 4.61223 181.206 1 170.813 1H131.625M79.375 1V23.8571H131.625V1M79.375 1H131.625M79.375 286.714H131.625" stroke="white" stroke-width="1.5" stroke-linecap="round" stroke-linejoin="round"/>
</svg>
