<svg width="109" height="123" viewBox="0 0 109 123" fill="none" xmlns="http://www.w3.org/2000/svg">
<path d="M109 52.7305V31.2603C98.9326 31.2603 91.2497 28.5765 86.2917 23.3602C81.203 17.4069 78.3522 9.86777 78.2302 2.04118V0.491396L57.9063 0V87.2037C57.2091 91.0085 55.3598 94.508 52.6082 97.2299C49.8565 99.9517 46.3349 101.765 42.5189 102.424C38.7028 103.084 34.7759 102.558 31.2684 100.918C27.7609 99.2784 24.8417 96.6031 22.9048 93.2537C20.9679 89.9042 20.1067 86.0419 20.4373 82.188C20.7679 78.3342 22.2744 74.6745 24.7536 71.7029C27.2328 68.7313 30.5651 66.591 34.3008 65.5708C38.0365 64.5507 41.9956 64.6998 45.6438 65.9981V45.2084C43.5167 44.8603 41.3651 44.6833 39.2097 44.6792C31.4548 44.6792 23.874 46.9759 17.426 51.2789C10.978 55.5819 5.95237 61.6979 2.98468 68.8535C0.0169883 76.0092 -0.759494 83.883 0.753422 91.4794C2.26634 99.0758 6.0007 106.053 11.4843 111.53C16.9679 117.007 23.9544 120.737 31.5603 122.248C39.1662 123.759 47.05 122.983 54.2146 120.019C61.3793 117.055 67.503 112.036 71.8114 105.596C76.1198 99.156 78.4194 91.5848 78.4194 83.8396C78.4152 82.2348 78.3141 80.6317 78.1167 79.039V44.4524C87.3583 50.2166 98.1105 53.0987 109 52.7305Z" fill="white"/>
</svg>
