<svg width="110" height="95" viewBox="0 0 110 95" fill="none" xmlns="http://www.w3.org/2000/svg">
<path d="M110 11.2456C105.862 13.1639 101.486 14.4388 97.0062 15.0311C101.727 12.0541 105.257 7.34012 106.927 1.78212C102.506 4.56883 97.6699 6.53124 92.6269 7.58446C89.5348 4.07514 85.5213 1.63537 81.1077 0.582147C76.6942 -0.471077 72.0847 -0.0890744 67.8781 1.67852C63.6715 3.44612 60.0622 6.51761 57.5192 10.4939C54.9761 14.4703 53.6169 19.1676 53.6181 23.9757C53.6181 25.8757 53.7694 27.7027 54.1406 29.4419C45.1693 28.9744 36.3918 26.4994 28.3821 22.1789C20.3723 17.8583 13.3106 11.7895 7.65875 4.36906C4.76313 9.64421 3.86794 15.8942 5.15545 21.8463C6.44296 27.7984 9.81636 33.0051 14.5887 36.4062C11.019 36.3044 7.52451 35.2919 4.4 33.4539V33.7169C4.40598 39.252 6.20582 44.616 9.49656 48.9058C12.7873 53.1956 17.368 56.1493 22.4675 57.2698C20.5383 57.8102 18.55 58.0756 16.555 58.059C15.1222 58.0861 13.6908 57.9489 12.2856 57.6498C13.7427 62.4073 16.5515 66.5677 20.3252 69.5581C24.0989 72.5486 28.652 74.222 33.3575 74.348C25.3752 80.9837 15.5304 84.5833 5.39688 84.5715C3.5475 84.5715 1.77375 84.4838 0 84.2426C10.3117 91.3059 22.3278 95.0422 34.595 94.9996C76.0925 94.9996 98.78 58.4609 98.78 26.7892C98.78 25.7296 98.7456 24.7065 98.6975 23.6907C103.145 20.3071 106.976 16.0898 110 11.2456Z" fill="white"/>
</svg>
